<svg width="65" height="66" viewBox="0 0 65 66" fill="none" xmlns="http://www.w3.org/2000/svg">
<circle cx="32.5" cy="32.7342" r="32.5" fill="#0156FF"/>
<g clip-path="url(#clip0_88_466)">
<path d="M45.2042 21.2289C45.1288 21.0411 44.9839 20.8896 44.7996 20.8059C44.6153 20.7222 44.4058 20.7127 44.2147 20.7796C44.0237 20.8464 43.8657 20.9843 43.7737 21.1646C43.6818 21.3449 43.6628 21.5537 43.7209 21.7476C44.9286 25.2186 42.5314 27.8108 40.7036 29.1992L39.9652 28.141C39.7169 27.7861 39.1618 27.491 38.7302 27.4858L34.5858 27.504C34.0795 27.5193 33.5868 27.6711 33.1597 27.9434L20.9475 36.5065C20.6635 36.7064 20.4702 37.0107 20.41 37.3528C20.3498 37.6949 20.4276 38.0469 20.6264 38.3317L26.1761 46.2721C26.5921 46.8636 27.2564 46.7921 27.8492 46.3787L40.0614 37.8143C40.4124 37.566 40.818 37.0304 40.961 36.6209L42.2584 32.5324C42.4014 32.1242 42.3143 31.5015 42.066 31.1466L41.6162 30.5018C44.0706 28.6207 46.6186 25.2966 45.2042 21.2289ZM39.5219 33.3943C39.2969 33.5518 39.0431 33.6634 38.775 33.7228C38.5069 33.7821 38.2297 33.7881 37.9593 33.7403C37.6888 33.6925 37.4305 33.5918 37.1989 33.4441C36.9674 33.2965 36.7673 33.1046 36.6099 32.8795C36.2913 32.4241 36.1665 31.8608 36.2627 31.3134C36.359 30.766 36.6686 30.2791 37.1234 29.9597C37.48 29.7099 37.9058 29.5777 38.3412 29.5817C38.7766 29.5856 39.1998 29.7255 39.5518 29.9818C39.1982 30.195 38.9551 30.3198 38.9096 30.3393C38.7485 30.4162 38.6182 30.5454 38.5401 30.706C38.4621 30.8666 38.4409 31.0489 38.48 31.2231C38.5192 31.3973 38.6163 31.553 38.7555 31.6648C38.8947 31.7765 39.0678 31.8377 39.2463 31.8382C39.3581 31.8382 39.4725 31.8122 39.5804 31.7615C39.8326 31.6419 40.103 31.5002 40.3851 31.3325C40.45 31.7226 40.4034 32.1231 40.2507 32.4878C40.098 32.8526 39.8454 33.1668 39.5219 33.3943Z" fill="white"/>
</g>
<defs>
<clipPath id="clip0_88_466">
<rect width="26" height="26" fill="white" transform="translate(20 20.7025)"/>
</clipPath>
</defs>
</svg>
