<svg width="65" height="66" viewBox="0 0 65 66" fill="none" xmlns="http://www.w3.org/2000/svg">
<circle cx="32.5" cy="32.7342" r="32.5" fill="#0156FF"/>
<path d="M32.9111 20.6266C26.1059 20.6266 20.5693 26.1631 20.5693 32.9684V38.0816C20.5693 39.3454 21.6764 40.3734 23.0377 40.3734H24.2719C24.5992 40.3734 24.9131 40.2434 25.1446 40.0119C25.376 39.7805 25.506 39.4666 25.506 39.1392V32.7919C25.506 32.4645 25.376 32.1506 25.1446 31.9192C24.9131 31.6877 24.5992 31.5577 24.2719 31.5577H23.1512C23.8374 26.7814 27.9472 23.0949 32.9111 23.0949C37.875 23.0949 41.9848 26.7814 42.671 31.5577H41.5504C41.223 31.5577 40.9091 31.6877 40.6777 31.9192C40.4462 32.1506 40.3162 32.4645 40.3162 32.7919V40.3734C40.3162 41.7347 39.2091 42.8418 37.8478 42.8418H35.3795V41.6076H30.4428V45.3101H37.8478C40.5704 45.3101 42.7845 43.096 42.7845 40.3734C44.1458 40.3734 45.2529 39.3454 45.2529 38.0816V32.9684C45.2529 26.1631 39.7164 20.6266 32.9111 20.6266Z" fill="white"/>
</svg>
